HIERARCHY
ROOT Hips
{
	OFFSET 0.000000 88.474243 0.000000
	CHANNELS 6 Xposition Yposition Zposition Zrotation Yrotation Xrotation 
	JOINT Hips_Spine
	{
		OFFSET 0.000000 0.000000 0.000000
		CHANNELS 3 Zrotation Yrotation Xrotation
		JOINT Spine
		{
			OFFSET 0.005100 8.711998 -0.691000
			CHANNELS 3 Zrotation Yrotation Xrotation
			JOINT Spine1
			{
				OFFSET -0.009200 8.660301 -1.275000
				CHANNELS 3 Zrotation Yrotation Xrotation
				JOINT Spine2
				{
					OFFSET 0.006300 9.852501 -1.857000
					CHANNELS 3 Zrotation Yrotation Xrotation
					JOINT Spine2_Neck
					{
						OFFSET 0.000000 0.000000 0.000000
						CHANNELS 3 Zrotation Yrotation Xrotation
						JOINT Neck
						{
							OFFSET 0.016300 11.420799 -0.263300
							CHANNELS 3 Zrotation Yrotation Xrotation
							End Site #name: Head
							{
								OFFSET -0.019200 9.262405 2.362500
							}
						}
					}
					JOINT Spine2_LeftShoulder
					{
						OFFSET 0.000000 0.000000 0.000000
						CHANNELS 3 Zrotation Yrotation Xrotation
						JOINT LeftShoulder
						{
							OFFSET 5.616900 6.732201 -0.345700
							CHANNELS 3 Zrotation Yrotation Xrotation
							JOINT LeftArm
							{
								OFFSET 10.664888 -0.183372 -2.440700
								CHANNELS 3 Zrotation Yrotation Xrotation
								JOINT LeftForeArm
								{
									OFFSET 27.459126 0.000000 0.000000
									CHANNELS 3 Zrotation Yrotation Xrotation
									End Site #name: LeftHand
									{
										OFFSET 21.306858 0.000000 0.000000
									}
								}
							}
						}
					}
					JOINT Spine2_RightShoulder
					{
						OFFSET 0.000000 0.000000 0.000000
						CHANNELS 3 Zrotation Yrotation Xrotation
						JOINT RightShoulder
						{
							OFFSET -5.580300 6.737503 -0.344400
							CHANNELS 3 Zrotation Yrotation Xrotation
							JOINT RightArm
							{
								OFFSET -10.679335 -0.188484 -2.383900
								CHANNELS 3 Zrotation Yrotation Xrotation
								JOINT RightForeArm
								{
									OFFSET -27.503529 0.000000 0.000000
									CHANNELS 3 Zrotation Yrotation Xrotation
									End Site #name: RightHand
									{
										OFFSET -21.306808 0.000000 0.000000
									}
								}
							}
						}
					}
				}
			}
		}
	}
	JOINT Hips_LeftUpLeg
	{
		OFFSET 0.000000 0.000000 0.000000
		CHANNELS 3 Zrotation Yrotation Xrotation
		JOINT LeftUpLeg
		{
			OFFSET 6.857700 -6.739601 0.312100
			CHANNELS 3 Zrotation Yrotation Xrotation
			JOINT LeftLeg
			{
				OFFSET -0.367590 -34.731552 -4.572400
				CHANNELS 3 Zrotation Yrotation Xrotation
				End Site #name: LeftFoot
				{
					OFFSET 0.367590 -34.656704 -6.067400
				}
			}
		}
	}
	JOINT Hips_RightUpLeg
	{
		OFFSET 0.000000 0.000000 0.000000
		CHANNELS 3 Zrotation Yrotation Xrotation
		JOINT RightUpLeg
		{
			OFFSET -6.876100 -6.733299 0.301000
			CHANNELS 3 Zrotation Yrotation Xrotation
			JOINT RightLeg
			{
				OFFSET 0.347353 -34.795158 -4.515900
				CHANNELS 3 Zrotation Yrotation Xrotation
				End Site #name: RightFoot
				{
					OFFSET -0.347353 -34.589367 -6.070300
				}
			}
		}
	}
}
MOTION
Frames: 17
Frame Time: 0.041667
-4.476698 3.544678 -35.234393 2.948571 -10.488080 4.633218 -0.000000 0.000000 0.000000 -0.863915 4.060887 7.594279 0.901839 0.853875 2.566683 0.000000 0.000000 0.000000 1.911213 2.509747 -2.062226 1.028407 3.728741 1.917440 2.581885 -0.487310 3.418500 -12.251876 -4.590527 1.430896 -34.097398 -4.602252 34.064500 -11.567584 -74.849009 19.364301 1.032583 -2.488436 1.988133 5.329361 -6.962459 1.076147 54.783439 6.506951 36.959973 46.791507 86.627409 58.505867 -0.000000 0.000000 0.000000 -5.058530 2.687389 -37.811489 -0.801919 0.043281 39.233425 0.000000 -0.000000 0.000000 -3.807239 -3.020310 -30.140871 -2.941846 -2.065929 66.914512 
-4.739330 3.476387 -36.046372 3.128308 -11.315697 4.382461 -0.000000 0.000000 0.000000 -0.468538 4.321358 8.487241 1.050440 0.952272 2.945956 0.000000 0.000000 0.000000 1.846982 2.584597 -1.347496 0.400282 4.318026 2.889690 2.533457 0.081922 3.261621 -12.542297 -1.935435 0.973871 -33.374857 -0.351180 32.888951 -11.258941 -73.027321 19.255038 1.027638 -2.312660 1.780070 5.334011 -6.484725 0.723046 54.976588 8.687044 36.903673 99.960565 87.470235 110.949187 -0.000000 0.000000 0.000000 -5.071285 4.989302 -37.227933 -1.161415 -0.353838 39.546441 -0.000000 -0.000000 0.000000 -4.548207 -5.857692 -26.052915 -6.275868 -3.592771 67.805946 
-4.990492 3.370715 -36.696415 2.673000 -11.996128 4.490919 -0.000000 0.000000 0.000000 -0.138728 4.529191 9.325368 1.165735 1.033218 3.273179 0.000000 0.000000 0.000000 1.767179 2.664610 -0.653431 -0.135862 4.950686 3.800625 2.458076 0.604536 3.179095 -12.905685 0.565530 0.544187 -33.095488 3.913543 32.029929 -12.267832 -72.318420 20.446808 1.108219 -2.128587 1.711016 5.754538 -5.870976 0.434294 55.358948 10.571137 36.482933 120.313910 86.914153 130.123610 -0.000000 0.000000 0.000000 -4.929539 7.599855 -37.161625 -1.672353 -0.792974 39.958817 -0.000000 -0.000000 0.000000 -5.310831 -8.927300 -22.304045 -8.094192 -4.957778 67.246193 
-5.201897 3.210290 -37.159734 1.879626 -12.408570 4.661621 -0.000000 0.000000 0.000000 0.148689 4.680126 10.004679 1.257830 1.092455 3.549822 0.000000 0.000000 0.000000 1.662625 2.705798 0.028731 -0.679318 5.489925 4.510293 2.363143 1.083490 3.130439 -13.354906 2.884311 0.113140 -33.118757 8.123133 31.407835 -14.415120 -72.494814 22.773294 1.272934 -1.912505 1.804389 6.410085 -4.870597 0.309398 55.391619 12.298378 35.283387 122.229020 86.392546 131.281288 -0.000000 0.000000 0.000000 -5.016473 9.942589 -37.718836 -2.292884 -1.384310 40.392558 -0.000000 -0.000000 0.000000 -6.142097 -12.035899 -19.108763 -9.427377 -5.890841 65.383070 
-5.352973 2.994039 -37.406106 0.739739 -12.439502 4.924610 -0.000000 0.000000 0.000000 0.366545 4.774842 10.487443 1.319855 1.129016 3.782950 0.000000 0.000000 0.000000 1.537861 2.712860 0.716338 -1.209315 5.902728 5.042931 2.254811 1.530816 3.134337 -13.897688 4.996027 -0.310123 -33.345352 12.168576 30.910531 -17.997673 -73.438428 26.525590 1.521659 -1.674353 2.062103 7.420417 -3.929527 0.296722 55.311851 13.764751 33.198713 116.144543 85.997194 124.497981 -0.000000 0.000000 0.000000 -5.425173 11.767314 -38.790716 -2.943908 -1.953207 40.712940 -0.000000 -0.000000 0.000000 -7.427732 -14.233559 -16.657265 -10.751416 -6.709460 62.820073 
-5.446500 2.762029 -37.453046 0.236571 -12.136748 5.013466 -0.000000 0.000000 0.000000 0.427893 4.731269 10.725549 1.342598 1.107304 3.940005 0.000000 0.000000 0.000000 1.367663 2.729596 1.074280 -1.691703 6.268853 5.033356 2.115443 1.913524 3.156551 -14.601637 6.723244 -0.727288 -33.963082 15.561446 30.311742 -24.405823 -75.471439 32.957241 1.713056 -1.448375 2.493764 8.385484 -3.222715 0.458186 52.825111 14.376093 31.064988 106.112802 85.742665 113.897995 -0.000000 0.000000 0.000000 -5.903329 12.758862 -39.741555 -3.540679 -2.531410 40.941293 -0.000000 -0.000000 0.000000 -8.716721 -16.029414 -14.531310 -11.866535 -7.499817 60.467164 
-5.500571 2.544068 -37.312325 0.341873 -11.519082 4.908523 -0.000000 0.000000 0.000000 0.338578 4.553782 10.733833 1.323467 1.030218 4.020460 0.000000 0.000000 0.000000 1.167714 2.752711 1.092031 -2.209264 6.582109 4.448743 1.941011 2.225489 3.195945 -15.460640 8.022284 -1.128767 -34.941786 18.257218 29.664890 -36.388728 -78.210292 44.829987 1.863134 -1.251795 3.110501 9.322824 -2.550032 0.813629 50.028370 14.086947 28.936686 93.288169 85.442059 100.706262 -0.000000 0.000000 0.000000 -6.290609 13.009227 -40.350333 -3.923995 -3.051322 41.083516 -0.000000 -0.000000 0.000000 -10.025365 -17.722017 -13.042798 -12.619070 -8.431705 57.997856 
-5.523449 2.371575 -37.003409 0.876810 -11.043980 5.044143 -0.000000 0.000000 0.000000 0.105565 4.255548 10.494422 1.268628 0.886297 4.064530 0.000000 0.000000 0.000000 0.934296 2.815600 0.779842 -2.837270 6.923535 3.288325 1.741204 2.447153 3.286450 -16.439223 8.818040 -1.482753 -36.245654 20.031673 28.837971 -60.069066 -80.732411 68.229118 2.006762 -1.116469 3.857779 10.185279 -2.125054 1.286699 47.005537 12.943238 27.145298 79.738663 84.904412 86.911974 -0.000000 0.000000 0.000000 -6.589123 12.758847 -40.334751 -4.044088 -3.429147 40.876285 -0.000000 -0.000000 0.000000 -11.366041 -19.216240 -12.474366 -13.017448 -9.084890 55.820302 
-5.516343 2.287943 -36.552348 1.955001 -11.033759 5.280862 -0.000000 0.000000 0.000000 -0.238200 3.813787 10.028511 1.168625 0.675068 4.037744 0.000000 0.000000 0.000000 0.652158 2.911835 0.136670 -3.528420 7.273424 1.595331 1.505084 2.574082 3.423170 -17.541058 9.146770 -1.792414 -37.969298 20.998037 27.970403 -96.695295 -80.871547 104.412374 2.134761 -1.048980 4.734046 10.981092 -2.045674 1.826468 44.094196 10.782479 26.259248 65.691516 84.007460 72.740725 -0.000000 0.000000 0.000000 -6.951454 11.842302 -39.712472 -3.747698 -3.465395 39.692799 -0.000000 -0.000000 0.000000 -12.534566 -20.133704 -13.087793 -13.411007 -9.774567 54.315357 
-5.480547 2.305572 -35.949041 2.936908 -10.286467 5.291226 -0.000000 0.000000 0.000000 -0.671323 3.214614 9.665777 1.029354 0.391439 4.118225 0.000000 0.000000 0.000000 0.340477 2.734935 -0.459869 -4.274457 6.917173 -0.034355 1.333130 2.562072 3.632728 -18.368849 8.902811 -1.951208 -39.354291 20.923032 27.218401 -125.643302 -77.912253 132.917754 2.234236 -1.034444 5.491536 11.618970 -2.132201 2.233769 41.352558 8.993886 25.483383 59.316929 83.271855 66.278705 -0.000000 0.000000 0.000000 -7.436667 10.385908 -38.337139 -3.036418 -3.070120 38.258481 -0.000000 -0.000000 0.000000 -13.581025 -20.338489 -14.014109 -13.439515 -9.891049 53.880130 
-5.409691 2.436510 -35.169755 3.892996 -8.661938 5.203216 -0.000000 0.000000 0.000000 -1.166047 2.480205 9.384124 0.859456 0.040487 4.269270 0.000000 0.000000 0.000000 0.006128 2.283239 -1.003524 -5.020997 5.893240 -1.545668 1.218894 2.408066 3.888155 -18.933473 8.090215 -1.942708 -40.405675 19.686531 26.708117 -141.276201 -73.593314 148.120755 2.293567 -1.058581 6.126749 12.122722 -2.198257 2.567587 39.457546 7.917986 24.941765 59.242212 82.988600 66.117092 0.000000 0.000000 0.000000 -7.890285 8.728248 -36.611922 -2.135787 -2.416012 37.087790 -0.000000 -0.000000 0.000000 -13.956829 -19.975113 -15.297384 -12.949790 -9.358724 54.163310 
-5.296585 2.695296 -34.195481 4.717692 -6.341962 4.875841 -0.000000 0.000000 0.000000 -1.693216 1.611737 9.149050 0.659353 -0.361237 4.507294 0.000000 0.000000 0.000000 -0.348787 1.596030 -1.482183 -5.777263 4.265589 -2.834781 1.152271 2.106387 4.196607 -19.224948 6.657158 -1.741869 -41.019062 17.100682 26.697620 -150.427352 -69.036281 156.891615 2.327808 -1.139504 6.629799 12.457440 -2.043170 2.862205 38.646149 7.192103 24.653039 60.683288 82.997386 67.560488 0.000000 0.000000 0.000000 -8.213582 7.214989 -34.669014 -1.074801 -1.814442 36.338527 -0.000000 -0.000000 -0.000000 -13.443361 -19.055200 -16.864995 -12.089121 -8.308220 54.887857 
-5.130095 3.085735 -33.017001 5.286229 -3.540057 4.224892 -0.000000 0.000000 0.000000 -2.442458 0.522169 8.918220 0.410627 -0.798747 4.814454 0.000000 0.000000 0.000000 -0.710642 0.671702 -1.878636 -6.497410 2.044717 -3.856317 1.133215 1.664839 4.541727 -19.264430 4.625193 -1.359205 -41.179202 13.073364 26.952940 -156.320180 -64.832140 162.480565 2.326478 -1.269817 6.949550 12.585102 -1.522465 3.122616 37.864947 6.154385 24.581501 65.186146 83.347249 72.233066 0.000000 0.000000 0.000000 -8.255293 5.864931 -32.477851 -0.133648 -1.361723 36.214970 -0.000000 -0.000000 -0.000000 -12.127882 -17.417305 -18.880108 -11.003600 -6.901176 56.398481 
-4.935518 3.547470 -31.652795 5.294717 -0.934925 3.337892 -0.000000 -0.000000 0.000000 -2.998764 -0.462085 8.895283 0.177857 -1.200863 5.172432 0.000000 0.000000 0.000000 -0.990461 -0.280182 -2.051937 -7.066271 -0.235347 -4.521151 1.167658 1.208197 4.989283 -19.113313 2.526749 -0.878955 -40.708631 8.336279 27.522553 -159.972245 -61.443922 166.038700 2.273674 -1.412645 7.160727 12.516086 -0.815538 3.321874 37.519796 4.582535 24.655486 73.529865 83.741742 80.689637 0.000000 0.000000 0.000000 -8.120921 4.796425 -30.040647 0.435288 -1.351470 36.015083 -0.000000 -0.000000 -0.000000 -10.630947 -15.833706 -21.810382 -10.003207 -5.395165 58.452900 
-4.723793 4.032620 -30.107883 4.720157 1.509569 2.155141 -0.000000 -0.000000 0.000000 -3.407552 -1.337295 9.083935 -0.025372 -1.567271 5.473558 0.000000 0.000000 0.000000 -1.201084 -1.255336 -2.008526 -7.507560 -2.519302 -4.873395 1.254361 0.736355 5.524635 -18.838360 0.396974 -0.324428 -39.762878 2.825897 28.283635 -162.222574 -59.214334 168.413283 2.177668 -1.573149 7.263068 12.484228 -0.394534 3.353836 37.694473 2.677327 24.859150 83.818235 83.982949 91.023955 0.000000 0.000000 0.000000 -7.786859 4.164803 -27.261576 0.796319 -1.417674 35.258746 -0.000000 -0.000000 -0.000000 -9.266385 -14.388213 -25.075794 -9.101276 -4.009920 60.033593 
-4.493696 4.469472 -28.377133 3.535094 3.894389 0.659128 -0.000000 -0.000000 0.000000 -3.802325 -2.161851 9.432167 -0.202797 -1.895114 5.716866 0.000000 0.000000 0.000000 -1.336590 -2.239515 -1.759967 -7.824450 -4.760818 -4.961743 1.401647 0.264169 6.119924 -18.383562 -1.706519 0.294976 -38.523333 -3.525479 29.363440 -163.693740 -57.972381 170.216597 2.094569 -1.762663 7.310797 12.760855 -0.352914 3.294841 38.347681 0.860002 25.016598 94.621961 84.022728 101.753860 0.000000 -0.000000 0.000000 -7.254124 3.833649 -24.460117 1.042620 -1.351395 34.283447 -0.000000 -0.000000 -0.000000 -8.328627 -12.976575 -28.634805 -8.141022 -2.681867 61.217891 
-4.255909 4.754708 -26.458828 1.744394 6.196309 -1.163490 -0.000000 -0.000000 0.000000 -4.199715 -2.930903 9.867927 -0.348034 -2.192738 5.947623 0.000000 0.000000 0.000000 -1.398537 -3.237597 -1.332216 -7.993404 -6.986569 -4.791214 1.608621 -0.215101 6.748781 -17.718256 -3.806524 0.970000 -37.041431 -10.528783 30.552397 -164.643011 -57.569414 171.709074 2.024967 -1.980456 7.295357 13.145519 -0.797371 3.057610 39.224396 -0.913443 25.159948 104.626401 83.854716 111.618645 0.000000 -0.000000 0.000000 -6.912209 3.675164 -21.756931 1.056783 -1.389720 33.312558 -0.000000 -0.000000 -0.000000 -7.584860 -11.655045 -32.700000 -7.145508 -1.437569 62.269542 
